<svg width="18" height="14" viewBox="0 0 18 14" fill="none" xmlns="http://www.w3.org/2000/svg">
<path d="M17 2.23077V10.8462C17 11.1726 16.8703 11.4856 16.6395 11.7164C16.4087 11.9473 16.0957 12.0769 15.7692 12.0769H2.23077C1.90435 12.0769 1.5913 11.9473 1.36048 11.7164C1.12967 11.4856 1 11.1726 1 10.8462V2.23077M17 2.23077C17 1.90435 16.8703 1.5913 16.6395 1.36048C16.4087 1.12967 16.0957 1 15.7692 1H2.23077C1.90435 1 1.5913 1.12967 1.36048 1.36048C1.12967 1.5913 1 1.90435 1 2.23077M17 2.23077L9.70031 7.28431C9.49453 7.42669 9.25024 7.50297 9 7.50297C8.74976 7.50297 8.50547 7.42669 8.29969 7.28431L1 2.23077" stroke="#999999" stroke-width="2" stroke-linecap="round" stroke-linejoin="round"/>
</svg>
